# xmcd CD database file
#
# Track frame offsets:
#	150
#	25050
#	46500
#
# Disc length: 949 seconds
#
# Revision: 1
# Processed by: cddbd v1.5.1PL0 Copyright (c) Steve Scherf et al.
# Submitted via: CDex 1.51
#
DISCID=1403b303
DTITLE=吉野紗香 - Empty-さみしさが見る夢-
DYEAR=1999
DGENRE=Pop
TTITLE0=Empty-さみしさが見る夢-
TTITLE1=CUTE
TTITLE2=Empty-さみしさが見る夢- BACKING TRACK
EXTD=YEAR: 1999
EXTT0=
EXTT1=
EXTT2=
PLAYORDER=
